<svg width="459" height="171" viewBox="0 0 459 171" fill="none" xmlns="http://www.w3.org/2000/svg">
<g clip-path="url(#clip0_428_17)">
<path d="M20.925 46.9086H12.4393V83.0817H0V0.773438H12.4393V33.7548H20.925V0.773438H33.3643V83.1784H20.925V46.9086Z" fill="white"/>
<path d="M54.7714 84.0492H52.3607C42.4286 84.0492 37.125 78.6329 37.125 68.4774V51.9383H49.4679V66.3495C49.4679 70.1216 50.7214 72.1527 53.5179 72.1527C56.5071 72.1527 57.5679 70.1216 57.5679 65.0922V63.2545C57.5679 57.3546 56.9893 55.3235 52.4571 49.4236L44.6464 39.0747C39.3429 32.2076 37.8 26.888 37.8 18.6669V16.0554C37.8 5.12613 43.2964 0 53.1321 0H55.4464C65.6679 0 69.7179 4.54581 69.7179 14.3145V27.8552H57.6643V15.9587C57.6643 13.1538 57.0857 11.1227 54.0964 11.1227C51.1071 11.1227 50.4321 12.9604 50.4321 16.9259V18.4734C50.4321 23.1159 51.3 25.6307 55.5429 31.1437L63.45 41.3959C69.0429 48.7466 70.875 52.9055 70.875 62.1906V64.802C70.875 76.892 65.6679 84.0492 54.7714 84.0492Z" fill="white"/>
<path d="M102.793 0.773438V12.7667H86.8826V34.3351H99.3219V46.8119H86.8826V70.6049H103.468V83.0817H74.4434V0.773438H102.793Z" fill="white"/>
<path d="M137.122 67.6076H128.057L126.418 83.0827H115.232L125.261 0.677734H140.015L150.718 83.0827H138.665L137.122 67.6076ZM135.772 55.3242L132.493 24.8576L129.311 55.3242H135.772Z" fill="white"/>
<path d="M165.278 83.1784H152.839V0.773438H173.089C181.382 0.773438 185.528 4.35206 185.528 13.5404V28.145C185.528 35.0121 182.346 37.6236 180.128 38.6875C182.925 39.9448 185.528 42.1694 185.528 47.6824V76.6015C185.528 79.8899 186.203 81.4375 186.782 82.6948V83.2751H174.439C173.86 82.4047 173.185 80.9539 173.185 76.5048V51.5512C173.185 47.8758 172.51 46.3283 168.557 46.3283H165.375L165.278 83.1784ZM165.278 34.6252H168.557C172.028 34.6252 173.089 32.4007 173.089 28.7254V17.2157C173.089 13.6371 172.317 11.8962 168.557 11.8962H165.278V34.6252Z" fill="white"/>
<path d="M210.696 12.6699V83.0817H198.353V12.6699H187.843V0.773438H221.207V12.7667L210.696 12.6699Z" fill="white"/>
<path d="M254.572 67.6076H245.508L243.868 83.0827H232.683L242.711 0.677734H257.465L268.168 83.0827H256.115L254.572 67.6076ZM253.222 55.3242L249.943 24.8576L246.761 55.3242H253.222Z" fill="white"/>
<path d="M281.475 0.773438L292.179 44.9742V0.773438H303.558V83.1784H293.433L281.475 35.7859V83.1784H270.193V0.773438H281.475Z" fill="white"/>
<path d="M308.186 0.773438H327.375C338.078 0.773438 341.357 6.86676 341.357 16.6354V66.8328C341.357 76.8916 337.596 83.1784 327.375 83.1784H308.282V0.773438H308.186ZM320.721 71.1852H323.711C327.471 71.1852 328.532 69.1541 328.532 64.8017V18.3764C328.532 13.6371 327.278 11.9929 324.193 11.9929H320.625V71.1852H320.721Z" fill="white"/>
<path d="M0 87.4355H19.0929C29.7964 87.4355 33.075 93.5289 33.075 103.298V153.495C33.075 163.554 29.3143 169.841 19.0929 169.841H0V87.4355ZM12.4393 157.944H15.4286C19.1893 157.944 20.25 155.913 20.25 151.561V105.135C20.25 100.396 18.9964 98.7517 15.9107 98.7517H12.3429V157.944H12.4393Z" fill="white"/>
<path d="M65.9562 87.4355V99.4288H50.0455V120.997H62.4848V133.474H50.0455V157.267H66.6312V169.744H37.5098V87.4355H65.9562Z" fill="white"/>
<path d="M86.496 170.711H84.0853C74.1532 170.711 68.8496 165.295 68.8496 155.139V138.6H81.1925V153.012C81.1925 156.784 82.446 158.815 85.2425 158.815C88.2318 158.815 89.2925 156.784 89.2925 151.754V149.917C89.2925 144.017 88.7139 141.986 84.1818 136.086L76.2746 125.93C70.971 119.063 69.4282 113.743 69.4282 105.522V102.911C69.4282 91.9816 74.9246 86.8555 84.7603 86.8555H87.0746C97.3925 86.8555 101.346 91.4013 101.346 101.17V114.711H89.2925V102.814C89.2925 100.009 88.7139 97.9782 85.7246 97.9782C82.7353 97.9782 82.0603 99.8159 82.0603 103.781V105.329C82.0603 109.971 82.9282 112.486 87.171 117.999L95.0782 128.251C100.671 135.602 102.503 139.761 102.503 149.046V151.658C102.6 163.554 97.3925 170.711 86.496 170.711Z" fill="white"/>
<path d="M118.607 169.841H106.168V87.4355H118.607V169.841Z" fill="white"/>
<path d="M134.807 171.001C127.478 171.001 122.85 164.425 122.85 155.913V104.362C122.85 95.1734 126.417 86.6621 138.182 86.6621H140.592C153.996 86.6621 155.539 95.3669 155.539 105.136V113.55H143.389V104.265C143.389 100.59 142.521 98.6553 139.435 98.6553C136.832 98.6553 135.578 100.686 135.578 104.265V152.431C135.578 156.3 137.121 158.331 139.628 158.331C142.81 158.331 144.257 156.107 144.257 153.012V132.41H138.664V119.74H156.117V169.841H149.078C148.982 169.357 148.017 165.295 146.957 161.716C146.089 164.521 141.846 170.905 135.578 170.905H134.807V171.001Z" fill="white"/>
<path d="M171.739 87.4355L182.443 131.636V87.4355H193.821V169.841H183.696L171.739 122.448V169.841H160.457V87.4355H171.739Z" fill="white"/>
<path d="M226.414 170.711H224.003C214.071 170.711 208.768 165.295 208.768 155.139V138.6H221.11V153.012C221.11 156.784 222.364 158.815 225.16 158.815C228.15 158.815 229.21 156.784 229.21 151.754V149.917C229.21 144.017 228.632 141.986 224.1 136.086L216.193 125.93C210.889 119.063 209.346 113.743 209.346 105.522V102.911C209.346 91.9816 214.843 86.8555 224.678 86.8555H226.993C237.214 86.8555 241.264 91.4013 241.264 101.17V114.711H229.21V102.814C229.21 100.009 228.632 97.9782 225.643 97.9782C222.653 97.9782 221.978 99.8159 221.978 103.781V105.329C221.978 109.971 222.846 112.486 227.089 117.999L234.996 128.251C240.589 135.602 242.421 139.761 242.421 149.046V151.658C242.518 163.554 237.31 170.711 226.414 170.711Z" fill="white"/>
<path d="M266.432 153.107V133.957H278.679V153.011C278.679 161.909 275.786 170.807 263.732 170.807H260.936C248.304 170.807 245.604 161.715 245.604 153.398V103.103C245.604 94.6889 249.268 86.5645 260.55 86.5645H263.443C277.136 86.5645 278.679 95.6561 278.679 103.684V118.385H266.432V103.877C266.432 100.299 265.371 98.4609 262.189 98.4609C259.104 98.4609 258.332 100.202 258.332 103.877V152.817C258.332 156.493 259.586 158.427 262.286 158.427C265.371 158.717 266.432 156.493 266.432 153.107Z" fill="white"/>
<path d="M303.653 133.667H295.168V169.841H282.729V87.4355H295.168V120.417H303.653V87.4355H316.093V169.841H303.653V133.667Z" fill="white"/>
<path d="M354.567 151.464C354.567 162.974 350.71 170.808 338.657 170.808H336.535C324.578 170.808 320.432 162.974 320.432 151.464V105.619C320.432 94.2062 324.771 86.6621 336.439 86.6621H338.56C350.71 86.6621 354.567 94.2062 354.567 105.522V151.464ZM341.839 104.942C341.839 100.59 340.392 98.6553 337.5 98.6553C334.317 98.6553 333.064 100.783 333.064 104.942V152.335C333.064 155.913 334.028 158.621 337.596 158.621C340.875 158.621 341.839 155.817 341.839 152.335V104.942Z" fill="white"/>
<path d="M392.657 151.464C392.657 162.974 388.8 170.808 376.747 170.808H374.625C362.668 170.808 358.521 162.974 358.521 151.464V105.619C358.521 94.2062 362.861 86.6621 374.529 86.6621H376.65C388.8 86.6621 392.657 94.2062 392.657 105.522V151.464ZM379.929 104.942C379.929 100.59 378.482 98.6553 375.589 98.6553C372.407 98.6553 371.154 100.783 371.154 104.942V152.335C371.154 155.913 372.118 158.621 375.686 158.621C378.964 158.621 379.929 155.817 379.929 152.335V104.942Z" fill="white"/>
<path d="M409.435 87.4355V157.074H424.671V169.841H396.996V87.4355H409.435Z" fill="white"/>
</g>
<defs>
<clipPath id="clip0_428_17">
<rect width="459" height="171" fill="white"/>
</clipPath>
</defs>
</svg>
